<?xml version="1.0" encoding="utf-8"?>
<!-- Generator: Adobe Illustrator 16.0.0, SVG Export Plug-In . SVG Version: 6.00 Build 0)  -->
<!DOCTYPE svg PUBLIC "-//W3C//DTD SVG 1.1//EN" "http://www.w3.org/Graphics/SVG/1.1/DTD/svg11.dtd">
<svg version="1.1" id="Layer_1" xmlns="http://www.w3.org/2000/svg" xmlns:xlink="http://www.w3.org/1999/xlink" x="0px" y="0px"
	 width="20px" height="20px" viewBox="0 0 20 20" enable-background="new 0 0 20 20" xml:space="preserve">
<path fill="#FFFFFF" d="M16.585,2.599H3.416c-0.452,0-0.817,0.366-0.817,0.818v13.169c0,0.45,0.365,0.815,0.817,0.815h7.09v-5.732
	H8.576V9.436h1.929V7.788c0-1.912,1.167-2.953,2.873-2.953c0.817,0,1.52,0.061,1.726,0.088V6.92l-1.185,0.001
	c-0.927,0-1.107,0.44-1.107,1.087v1.427h2.212l-0.287,2.233h-1.925v5.732h3.773c0.45,0,0.816-0.365,0.816-0.815V3.417
	C17.401,2.965,17.035,2.599,16.585,2.599z"/>
</svg>
