<?xml version="1.0" encoding="utf-8"?>
<!-- Generator: Adobe Illustrator 16.0.0, SVG Export Plug-In . SVG Version: 6.00 Build 0)  -->
<!DOCTYPE svg PUBLIC "-//W3C//DTD SVG 1.1//EN" "http://www.w3.org/Graphics/SVG/1.1/DTD/svg11.dtd">
<svg version="1.1" id="Layer_1" xmlns="http://www.w3.org/2000/svg" xmlns:xlink="http://www.w3.org/1999/xlink" x="0px" y="0px"
	 width="20px" height="20px" viewBox="0 0 20 20" enable-background="new 0 0 20 20" xml:space="preserve">
<g>
	<defs>
		<path id="SVGID_1_" d="M13.419,8.091l-3.256-1.646c0,0-5.931-2.998-6.279-3.175C3.534,3.095,3.188,3.2,3.188,3.569
			c0,0.613,0,6.402,0,6.402s0,6.256,0,6.532c0,0.277,0.248,0.396,0.551,0.241c0.302-0.152,6.424-3.246,6.424-3.246l3.256-1.646
			c0,0,2.761-1.395,3.128-1.581c0.367-0.187,0.334-0.441,0.023-0.586C16.261,9.538,13.419,8.091,13.419,8.091z"/>
	</defs>
	<use xlink:href="#SVGID_1_"  overflow="visible" fill="#FFFFFF"/>
	<clipPath id="SVGID_2_">
		<use xlink:href="#SVGID_1_"  overflow="visible"/>
	</clipPath>
	<polygon clip-path="url(#SVGID_2_)" fill="#FFFFFF" points="3.188,2.97 3.188,9.971 3.188,16.973 11.252,9.971 	"/>
</g>
<g>
	<defs>
		<path id="SVGID_3_" d="M13.419,8.091l-3.256-1.646c0,0-5.931-2.998-6.279-3.175C3.534,3.095,3.188,3.2,3.188,3.569
			c0,0.613,0,6.402,0,6.402s0,6.256,0,6.532c0,0.277,0.248,0.396,0.551,0.241c0.302-0.152,6.424-3.246,6.424-3.246l3.256-1.646
			c0,0,2.761-1.395,3.128-1.581c0.367-0.187,0.334-0.441,0.023-0.586C16.261,9.538,13.419,8.091,13.419,8.091z"/>
	</defs>
	<clipPath id="SVGID_4_">
		<use xlink:href="#SVGID_3_"  overflow="visible"/>
	</clipPath>
	<polygon clip-path="url(#SVGID_4_)" fill="#FFFFFF" points="13.419,8.091 10.163,6.445 3.188,2.919 3.188,2.97 11.252,9.971 	"/>
</g>
<g>
	<defs>
		<path id="SVGID_5_" d="M13.419,8.091l-3.256-1.646c0,0-5.931-2.998-6.279-3.175C3.534,3.095,3.188,3.2,3.188,3.569
			c0,0.613,0,6.402,0,6.402s0,6.256,0,6.532c0,0.277,0.248,0.396,0.551,0.241c0.302-0.152,6.424-3.246,6.424-3.246l3.256-1.646
			c0,0,2.761-1.395,3.128-1.581c0.367-0.187,0.334-0.441,0.023-0.586C16.261,9.538,13.419,8.091,13.419,8.091z"/>
	</defs>
	<clipPath id="SVGID_6_">
		<use xlink:href="#SVGID_5_"  overflow="visible"/>
	</clipPath>
	<polygon clip-path="url(#SVGID_6_)" fill="#FFFFFF" points="3.188,16.973 3.188,17.024 10.163,13.498 13.419,11.854 11.252,9.971 	
		"/>
</g>
<g>
	<defs>
		<path id="SVGID_7_" d="M13.419,8.091l-3.256-1.646c0,0-5.931-2.998-6.279-3.175C3.534,3.095,3.188,3.2,3.188,3.569
			c0,0.613,0,6.402,0,6.402s0,6.256,0,6.532c0,0.277,0.248,0.396,0.551,0.241c0.302-0.152,6.424-3.246,6.424-3.246l3.256-1.646
			c0,0,2.761-1.395,3.128-1.581c0.367-0.187,0.334-0.441,0.023-0.586C16.261,9.538,13.419,8.091,13.419,8.091z"/>
	</defs>
	<clipPath id="SVGID_8_">
		<use xlink:href="#SVGID_7_"  overflow="visible"/>
	</clipPath>
	<polygon clip-path="url(#SVGID_8_)" fill="#FFFFFF" points="13.419,8.091 11.252,9.971 13.419,11.854 17.139,9.971 	"/>
</g>
</svg>
