<?xml version="1.0" encoding="utf-8"?>
<!-- Generator: Adobe Illustrator 16.0.0, SVG Export Plug-In . SVG Version: 6.00 Build 0)  -->
<!DOCTYPE svg PUBLIC "-//W3C//DTD SVG 1.1//EN" "http://www.w3.org/Graphics/SVG/1.1/DTD/svg11.dtd">
<svg version="1.1" id="Layer_1" xmlns="http://www.w3.org/2000/svg" xmlns:xlink="http://www.w3.org/1999/xlink" x="0px" y="0px"
	 width="20px" height="20px" viewBox="0 0 20 20" enable-background="new 0 0 20 20" xml:space="preserve">
<path fill="#FFFFFF" d="M17.729,5.724c-0.561,0.249-1.162,0.417-1.794,0.493c0.645-0.388,1.141-1.001,1.373-1.728
	c-0.604,0.356-1.272,0.616-1.982,0.757c-0.57-0.606-1.382-0.987-2.278-0.987c-1.726,0-3.124,1.398-3.124,3.123
	c0,0.246,0.027,0.484,0.08,0.712c-2.596-0.13-4.894-1.374-6.437-3.263c-0.268,0.46-0.422,0.998-0.422,1.57
	c0,1.084,0.551,2.039,1.388,2.6C4.022,8.984,3.542,8.844,3.12,8.61v0.04c0,1.512,1.077,2.775,2.505,3.062
	c-0.262,0.07-0.54,0.109-0.821,0.109c-0.205,0-0.398-0.019-0.59-0.056c0.397,1.241,1.552,2.145,2.919,2.17
	c-1.071,0.838-2.417,1.336-3.881,1.336c-0.25,0-0.5-0.016-0.744-0.043c1.382,0.887,3.023,1.404,4.786,1.404
	c5.746,0,8.883-4.76,8.883-8.888c0-0.134-0.001-0.27-0.009-0.404C16.78,6.899,17.312,6.351,17.729,5.724"/>
</svg>
