<?xml version="1.0" encoding="utf-8"?>
<!-- Generator: Adobe Illustrator 16.0.0, SVG Export Plug-In . SVG Version: 6.00 Build 0)  -->
<!DOCTYPE svg PUBLIC "-//W3C//DTD SVG 1.1//EN" "http://www.w3.org/Graphics/SVG/1.1/DTD/svg11.dtd">
<svg version="1.1" id="Layer_1" xmlns="http://www.w3.org/2000/svg" xmlns:xlink="http://www.w3.org/1999/xlink" x="0px" y="0px"
	 width="20px" height="20px" viewBox="0 0 20 20" enable-background="new 0 0 20 20" xml:space="preserve">
<path fill="#FFFFFF" d="M13.592,1.521H6.407c-2.71,0-4.908,2.197-4.908,4.907v7.187c0,2.709,2.197,4.906,4.908,4.906h7.185
	c2.711,0,4.908-2.197,4.908-4.906V6.428C18.5,3.717,16.303,1.521,13.592,1.521z M16.935,13.74c0,1.798-1.459,3.257-3.259,3.257
	H6.323c-1.799,0-3.258-1.459-3.258-3.257V6.386c0-1.799,1.458-3.258,3.258-3.258h7.353c1.8,0,3.259,1.459,3.259,3.258V13.74z"/>
<path fill="#FFFFFF" d="M10,5.652c-2.436,0-4.411,1.975-4.411,4.411c0,2.438,1.975,4.412,4.411,4.412
	c2.437,0,4.411-1.975,4.411-4.412C14.41,7.626,12.437,5.652,10,5.652z M10,12.923c-1.579,0-2.859-1.281-2.859-2.86
	c0-1.579,1.28-2.859,2.859-2.859c1.58,0,2.86,1.28,2.86,2.859C12.859,11.642,11.579,12.923,10,12.923z"/>
</svg>
