<?xml version="1.0" encoding="utf-8"?>
<!-- Generator: Adobe Illustrator 16.0.0, SVG Export Plug-In . SVG Version: 6.00 Build 0)  -->
<!DOCTYPE svg PUBLIC "-//W3C//DTD SVG 1.1//EN" "http://www.w3.org/Graphics/SVG/1.1/DTD/svg11.dtd">
<svg version="1.1" id="Layer_1" xmlns="http://www.w3.org/2000/svg" xmlns:xlink="http://www.w3.org/1999/xlink" x="0px" y="0px"
	 width="20px" height="20px" viewBox="0 0 20 20" enable-background="new 0 0 20 20" xml:space="preserve">
<g>
	<path fill="#FFFFFF" d="M16.54,13.804c-0.358,0.849-0.527,1.228-0.989,1.977c-0.642,1.046-1.548,2.35-2.669,2.36
		c-0.996,0.012-1.252-0.693-2.605-0.687c-1.353,0.009-1.635,0.698-2.632,0.689c-1.12-0.013-1.978-1.188-2.622-2.232
		C3.227,12.984,3.039,9.55,4.146,7.727C4.934,6.43,6.175,5.67,7.343,5.67c1.189,0,1.937,0.697,2.918,0.697
		c0.954,0,1.535-0.699,2.911-0.699c1.037,0,2.139,0.606,2.922,1.652C13.525,8.828,13.941,12.755,16.54,13.804z"/>
	<g>
		<path fill="#FFFFFF" d="M12.129,4.499c0.499-0.686,0.877-1.654,0.739-2.643c-0.813,0.059-1.77,0.616-2.327,1.338
			c-0.505,0.658-0.923,1.633-0.76,2.58C10.67,5.803,11.595,5.235,12.129,4.499z"/>
	</g>
</g>
</svg>
