<?xml version="1.0" encoding="utf-8"?>
<!-- Generator: Adobe Illustrator 16.0.0, SVG Export Plug-In . SVG Version: 6.00 Build 0)  -->
<!DOCTYPE svg PUBLIC "-//W3C//DTD SVG 1.1//EN" "http://www.w3.org/Graphics/SVG/1.1/DTD/svg11.dtd">
<svg version="1.1" id="Layer_1" xmlns="http://www.w3.org/2000/svg" xmlns:xlink="http://www.w3.org/1999/xlink" x="0px" y="0px"
	 width="20px" height="20px" viewBox="0 0 20 20" enable-background="new 0 0 20 20" xml:space="preserve">
<g>
	<circle fill="none" stroke="#69C7C1" stroke-miterlimit="10" cx="5.057" cy="5.087" r="1.958"/>
	<circle fill="none" stroke="#69C7C1" stroke-miterlimit="10" cx="10" cy="6.135" r="1.957"/>
	<path fill="#FFFFFF" stroke="#69C7C1" stroke-miterlimit="10" d="M1.876,14.095v-3.808c0,0,1.04-2.194,3.181-2.194
		c2.142,0,2.986,2.057,2.986,2.057v3.945H1.876z"/>
	<circle fill="none" stroke="#69C7C1" stroke-miterlimit="10" cx="15.139" cy="5.087" r="1.957"/>
	<path fill="#FFFFFF" stroke="#69C7C1" stroke-miterlimit="10" d="M11.957,14.095v-3.808c0,0,1.041-2.194,3.182-2.194
		s2.985,2.057,2.985,2.057v3.945H11.957z"/>
	<path fill="#FFFFFF" stroke="#69C7C1" stroke-miterlimit="10" d="M7.29,15.242v-4.148c0,0,0.282-1.954,2.71-1.954
		s2.952,1.954,2.952,1.954v4.148H7.29z"/>
	<path fill="#FFFFFF" stroke="#69C7C1" stroke-miterlimit="10" d="M12.177,9.906"/>
</g>
</svg>
