<?xml version="1.0" encoding="utf-8"?>
<!-- Generator: Adobe Illustrator 16.0.0, SVG Export Plug-In . SVG Version: 6.00 Build 0)  -->
<!DOCTYPE svg PUBLIC "-//W3C//DTD SVG 1.1//EN" "http://www.w3.org/Graphics/SVG/1.1/DTD/svg11.dtd">
<svg version="1.1" id="Layer_1" xmlns="http://www.w3.org/2000/svg" xmlns:xlink="http://www.w3.org/1999/xlink" x="0px" y="0px"
	 width="20px" height="20px" viewBox="0 0 20 20" enable-background="new 0 0 20 20" xml:space="preserve">
<g>
	<path fill="none" stroke="#D1D1D1" stroke-miterlimit="10" d="M4.731,16.98c-1.101,0-2-0.799-2-1.772V4.792
		c0-0.975,0.899-1.772,2-1.772h10.537c1.101,0,2,0.798,2,1.772v10.416c0,0.974-0.899,1.772-2,1.772H4.731z"/>
</g>
<line fill="none" stroke="#D1D1D1" stroke-miterlimit="10" x1="14.188" y1="3.02" x2="14.188" y2="16.98"/>
<line fill="none" stroke="#D1D1D1" stroke-miterlimit="10" x1="5.794" y1="3.02" x2="5.794" y2="16.98"/>
<line fill="none" stroke="#D1D1D1" stroke-width="1.5" stroke-miterlimit="10" x1="5.794" y1="10" x2="14.375" y2="10"/>
<rect x="2.731" y="5.083" fill="none" stroke="#D1D1D1" stroke-width="0.7" stroke-miterlimit="10" width="3.063" height="3.083"/>
<rect x="2.731" y="11.876" fill="none" stroke="#D1D1D1" stroke-width="0.7" stroke-miterlimit="10" width="3.063" height="3.083"/>
<rect x="14.188" y="5.083" fill="none" stroke="#D1D1D1" stroke-width="0.7" stroke-miterlimit="10" width="3.063" height="3.083"/>
<rect x="14.188" y="11.876" fill="none" stroke="#D1D1D1" stroke-width="0.7" stroke-miterlimit="10" width="3.063" height="3.083"/>
</svg>
