<?xml version="1.0" encoding="utf-8"?>
<!-- Generator: Adobe Illustrator 16.0.0, SVG Export Plug-In . SVG Version: 6.00 Build 0)  -->
<!DOCTYPE svg PUBLIC "-//W3C//DTD SVG 1.1//EN" "http://www.w3.org/Graphics/SVG/1.1/DTD/svg11.dtd">
<svg version="1.1" id="Layer_1" xmlns="http://www.w3.org/2000/svg" xmlns:xlink="http://www.w3.org/1999/xlink" x="0px" y="0px"
	 width="50px" height="20px" viewBox="0 0 50 20" enable-background="new 0 0 50 20" xml:space="preserve">
<g>
	<polygon fill="#662D91" points="15.434,7.927 14.74,10.375 14.045,7.927 12.493,7.927 12.493,11.853 13.648,11.853 13.648,10.521 
		13.622,9.91 13.567,9.334 13.579,9.334 14.294,11.853 15.188,11.853 15.901,9.334 15.912,9.334 15.847,10.043 15.832,10.654 
		15.832,11.853 16.986,11.853 16.986,7.927 	"/>
	<polygon fill="#662D91" points="20.526,10.322 20.526,9.404 18.907,9.404 18.907,8.842 20.82,8.842 20.82,7.927 17.619,7.927 
		17.619,11.853 20.896,11.853 20.896,10.937 18.907,10.937 18.907,10.322 	"/>
	<path fill="#662D91" d="M25.211,11.863V9.695h-1.762v0.85h0.567c-0.065,0.272-0.398,0.451-0.659,0.451
		c-0.65,0-0.825-0.505-0.825-1.062c0-0.693,0.24-1.152,0.749-1.152c0.332,0,0.565,0.176,0.658,0.498h1.223
		c-0.16-0.966-0.916-1.457-1.862-1.457c-1.271,0-2.055,0.861-2.055,2.116c0,1.37,0.9,2.018,1.903,2.018
		c0.618,0,0.97-0.229,1.183-0.48l0.05,0.387H25.211z"/>
	<path fill="#662D91" d="M28.245,7.927h-1.311l-1.409,3.925h1.262l0.146-0.519h1.282l0.151,0.519h1.282L28.245,7.927z
		 M27.181,10.517l0.397-1.407l0.414,1.407H27.181z"/>
	<path fill="#662D91" d="M33.734,10.668c0-0.423-0.231-0.789-0.652-0.9c0.249-0.156,0.51-0.452,0.51-0.857
		c0-0.778-0.702-0.984-1.586-0.984h-1.878v3.925h1.918C33.063,11.853,33.734,11.548,33.734,10.668z M32.391,9.153
		c0,0.229-0.184,0.344-0.44,0.344h-0.532V8.842h0.449C32.142,8.842,32.391,8.847,32.391,9.153z M31.418,10.937v-0.724h0.407
		c0.412,0,0.709,0.021,0.709,0.364c0,0.294-0.24,0.36-0.557,0.36H31.418z"/>
	<path fill="#662D91" d="M36.139,11.957c1.165,0,2.063-0.753,2.063-2.088c0-1.038-0.663-2.046-2.063-2.046
		c-1.223,0-2.056,0.803-2.056,2.034C34.083,11.193,34.908,11.957,36.139,11.957z M36.129,8.782c0.565-0.015,0.786,0.553,0.786,1.087
		c0,0.647-0.221,1.126-0.776,1.126c-0.618,0-0.77-0.627-0.77-1.126C35.369,9.371,35.547,8.782,36.129,8.782z"/>
	<polygon fill="#662D91" points="40.155,10.752 40.79,11.853 42.234,11.853 40.899,9.814 42.225,7.927 40.779,7.927 40.216,8.929 
		39.659,7.927 38.216,7.927 39.468,9.814 38.078,11.853 39.522,11.853 	"/>
</g>
<polygon fill="#662D91" points="12.535,5.372 12.06,4.896 12.06,4.896 4.186,12.771 4.186,12.771 4.661,13.246 "/>
<polygon fill="#32BCAD" points="4.662,7.948 7.241,5.372 6.766,4.896 6.765,4.896 4.187,7.474 "/>
<rect x="44.525" y="11.324" transform="matrix(0.7075 0.7067 -0.7067 0.7075 21.6382 -28.3718)" fill="#32BCAD" width="1.143" height="1.264"/>
</svg>
